HIERARCHY
ROOT Hips
{
  OFFSET 0 89.5177 0.535
  CHANNELS 6 Xposition Yposition Zposition Zrotation Xrotation Yrotation
  JOINT Spine
  {
    OFFSET 12.0259 -0.162855 1.69034e-005
    CHANNELS 3 Zrotation Xrotation Yrotation
    JOINT Spine1
    {
      OFFSET 15.3169 -0.0121922 0
      CHANNELS 3 Zrotation Xrotation Yrotation
      JOINT Spine2
      {
        OFFSET 15.3176 -0.0121908 0
        CHANNELS 3 Zrotation Xrotation Yrotation
        JOINT Neck
        {
          OFFSET 19.9142 1.56338 0
          CHANNELS 3 Zrotation Xrotation Yrotation
          JOINT Head
          {
            OFFSET 6.92651 0 0
            CHANNELS 3 Zrotation Xrotation Yrotation
            End Site
            {
              OFFSET 20.7666 0 0
            }
          }
          JOINT LeftShoulder
          {
            OFFSET -6.20654 0.708824 7.28219
            CHANNELS 3 Zrotation Xrotation Yrotation
            JOINT LeftArm
            {
              OFFSET 14.108 0 -1.52588e-005
              CHANNELS 3 Zrotation Xrotation Yrotation
              JOINT LeftForeArm
              {
                OFFSET 28.5802 0 0
                CHANNELS 3 Zrotation Xrotation Yrotation
                JOINT LeftHand
                {
                  OFFSET 27.092 0 0
                  CHANNELS 3 Zrotation Xrotation Yrotation
                  End Site
                  {
                    OFFSET 9.55928 -0.186424 0.145352
                  }
                }
              }
            }
          }
          JOINT RightShoulder
          {
            OFFSET -6.20654 0.708866 -7.28218
            CHANNELS 3 Zrotation Xrotation Yrotation
            JOINT RightArm
            {
              OFFSET 14.108 0 1.52588e-005
              CHANNELS 3 Zrotation Xrotation Yrotation
              JOINT RightForeArm
              {
                OFFSET 28.5802 0 0
                CHANNELS 3 Zrotation Xrotation Yrotation
                JOINT RightHand
                {
                  OFFSET 27.092 0 0
                  CHANNELS 3 Zrotation Xrotation Yrotation
                  End Site
                  {
                    OFFSET 9.55929 -0.186417 -0.145354
                  }
                }
              }
            }
          }
        }
      }
    }
  }
  JOINT LeftUpLeg
  {
    OFFSET 0.005 -0.535 8.837
    CHANNELS 3 Zrotation Xrotation Yrotation
    JOINT LeftLeg
    {
      OFFSET 39.9035 0 0
      CHANNELS 3 Zrotation Xrotation Yrotation
      JOINT LeftFoot
      {
        OFFSET 39.6689 0 0
        CHANNELS 3 Zrotation Xrotation Yrotation
        JOINT LeftToe
        {
          OFFSET 10.1624 13.6296 0
          CHANNELS 3 Zrotation Xrotation Yrotation
          End Site
          {
            OFFSET 8.38147 0 0
          }
        }
      }
    }
  }
  JOINT RightUpLeg
  {
    OFFSET 0.005 -0.535 -8.837
    CHANNELS 3 Zrotation Xrotation Yrotation
    JOINT RightLeg
    {
      OFFSET 39.9035 0 0
      CHANNELS 3 Zrotation Xrotation Yrotation
      JOINT RightFoot
      {
        OFFSET 39.6689 0 0
        CHANNELS 3 Zrotation Xrotation Yrotation
        JOINT RightToe
        {
          OFFSET 10.1624 13.6296 0
          CHANNELS 3 Zrotation Xrotation Yrotation
          End Site
          {
            OFFSET 8.38147 0 0
          }
        }
      }
    }
  }
}
MOTION
Frames:	14
Frame Time:	0.0333333
79.7823 80.273 -28.4555 107.683 -48.9701 18.4118 -0.69403 -2.44738 -0.690635 -1.41949 -4.88555 -1.41267 -1.41949 -4.88555 -1.41268 -8.31066e-012 -9.0191e-006 -5.27751e-005 -16.9118 1.76896 -3.26041 177.639 9.76598 -76.335 -26.0823 -22.8546 42.6122 -78.9825 7.95139e-016 1.59028e-015 -54.4348 -56.0386 -50.0491 -178.227 5.52491 72.1801 13.2071 19.3566 -52.8958 -112.871 -6.26172e-015 -4.17448e-015 -22.63 67.5765 20.5372 -2.51404 8.09994 -167.574 -30.0271 -1.27222e-014 -0 28.9963 -1.05913 -3.45814 90 -3.18055e-015 -3.18055e-015 -61.2519 -19.5382 161.437 -37.6712 -1.59028e-015 -3.97569e-015 13.6524 -2.30085 -3.76473 90 -7.95139e-016 1.59028e-015 
79.1082 80.29 -33.8459 111.702 -51.7543 21.0588 -1.09598 -2.52817 -0.329861 -2.20973 -5.04904 -0.708971 -2.20973 -5.04904 -0.70898 -8.30669e-012 -9.0191e-006 -5.27751e-005 -17.631 5.62386 -3.03842 178.017 9.15357 -77.722 -25.8265 -28.6367 39.6557 -80.7873 7.95139e-016 1.59028e-015 -59.0001 -57.3598 -55.9906 -178.149 6.00313 72.8218 13.7086 20.4707 -52.3115 -110.973 2.98177e-015 3.97569e-016 -19.9244 68.5624 18.7135 -2.539 9.44111 -164.84 -32.4975 9.54166e-015 6.36111e-015 23.3479 -1.17326 -5.84109 90 6.36111e-015 -6.36111e-015 -60.9213 -21.608 165.204 -41.4322 0 1.98785e-015 13.0461 0.175866 -7.7925 90 -5.96354e-016 -1.59028e-015 
78.7052 80.5264 -39.2207 117.472 -54.8953 26.2382 -1.5128 -2.49932 -0.259388 -3.04125 -4.99041 -0.58545 -3.04125 -4.99041 -0.585459 -8.30828e-012 -9.0191e-006 -5.27751e-005 -18.9483 9.33177 -1.74056 178.325 8.68513 -79.0417 -25.1174 -34.0655 35.9275 -82.0006 7.95139e-015 -0 -64.4048 -59.2318 -63.3432 -178.202 5.85274 72.8869 14.1857 20.6035 -52.5336 -108.419 7.95139e-016 3.18055e-015 -26.5105 68.5511 25.7654 -4.552 7.13625 -163.981 -38.897 6.36111e-015 -6.36111e-015 13.9938 -3.29689 -6.05081 90 9.54166e-015 -0 -60.1633 -20.1273 169.201 -43.5781 0 -1.98785e-016 10.1404 0.282968 -5.29212 90 2.98177e-016 1.59028e-015 
78.4566 80.7694 -44.5735 121.564 -59.1445 29.5872 -1.42074 -2.4292 -0.0829374 -2.84883 -4.85512 -0.226313 -2.84883 -4.85512 -0.226323 -8.30748e-012 -9.0191e-006 -5.27751e-005 -20.4696 13.185 -0.521719 178.517 8.58742 -80.1637 -24.6383 -39.3943 31.3812 -81.9988 7.95139e-016 1.27222e-014 -71.5036 -59.5093 -71.8074 -178.48 5.08139 73.3184 14.0158 19.5405 -53.4841 -106.225 -4.37326e-015 -0 -40.6174 66.649 40.8062 -6.40562 3.65002 -163.796 -46.8119 6.36111e-015 -0 -0.476054 -4.31649 -2.6496 90 6.36111e-015 -3.18055e-015 -56.8791 -18.5939 174.356 -45.995 1.59028e-015 -0 12.2358 -0.0189736 -3.66431 90 -1.98785e-016 -0 
78.1548 81.0922 -49.5348 127.394 -64.4194 35.7165 -1.19293 -2.08508 -0.13697 -2.39321 -4.16638 -0.317512 -2.39321 -4.16638 -0.317522 -8.30589e-012 -9.0191e-006 -5.27751e-005 -21.8191 16.8214 0.359328 178.757 8.34368 -81.495 -26.2502 -44.9497 26.5023 -79.2059 -6.36111e-015 -3.18055e-015 -78.1415 -59.0842 -79.9693 -178.594 4.74823 73.4836 11.9999 18.266 -54.2184 -104.574 -1.59028e-015 -1.59028e-015 -52.7489 62.1693 53.7465 -7.07365 0.145371 -166.616 -49.9479 -3.18055e-015 -3.18055e-015 -16.0277 3.20986 -6.19066 90 -3.18055e-015 -3.97569e-015 -52.7784 -14.9384 179.747 -47.5287 0 -2.5842e-015 15.1905 0.160221 -3.33133 90 0 -0 
77.9616 81.8369 -54.1995 138.631 -68.8383 47.2755 -1.14344 -1.66932 -0.27891 -2.29645 -3.33225 -0.591298 -2.29645 -3.33225 -0.591307 -8.3043e-012 -9.0191e-006 -5.27751e-005 -23.0109 19.7179 1.61305 178.971 7.89297 -82.5478 -30.5945 -50.2308 20.6259 -73.8301 -4.77083e-015 -3.18055e-015 -82.5341 -59.5044 -85.8944 -178.569 4.74208 73.1819 9.60744 17.0703 -55.3519 -103.086 3.57812e-015 1.59028e-015 -56.7227 59.4811 57.361 -11.2026 -3.76878 -169.471 -57.1506 1.59028e-015 -1.59028e-015 -4.29306 11.3637 -23.3383 90 3.18055e-015 -0 -49.1209 -10.7078 -175.426 -47.0728 -1.59028e-015 1.59028e-015 17.4306 -0.226369 -2.45992 90 -2.48481e-015 -0 
77.9306 82.9838 -58.7076 152.761 -70.7052 61.3952 -1.24074 -1.55788 -0.421761 -2.4943 -3.10575 -0.877482 -2.4943 -3.10575 -0.877491 -8.30907e-012 -9.0191e-006 -5.27751e-005 -24.3517 22.0672 3.1311 179.227 7.51409 -84.1131 -35.9416 -55.0532 14.0489 -66.6905 -3.18055e-015 -6.36111e-015 -85.5852 -60.4448 -90.0597 -178.557 4.60865 72.5954 7.84935 15.6107 -57.1935 -102.023 5.56597e-015 1.59028e-015 -55.7287 59.8497 55.9803 -18.154 -5.25567 -171.054 -61.4907 -1.59028e-015 1.19271e-015 3.48965 13.8003 -29.043 90 3.18055e-015 3.18055e-015 -45.8111 -7.89715 -172.158 -44.9868 2.38542e-015 1.59028e-015 19.6572 -1.50529 -0.640968 90 -6.95746e-016 -3.18055e-015 
77.9723 84.3825 -63.0933 166.17 -71.1153 75.662 -1.33824 -1.59061 -0.81937 -2.70065 -3.16101 -1.67647 -2.70065 -3.16101 -1.67648 -8.30748e-012 -9.0191e-006 -5.27751e-005 -25.5843 23.2569 4.94159 179.589 7.4805 -86.847 -40.3298 -60.2277 8.73962 -57.7419 -1.59028e-015 -0 -90.7135 -60.3083 -96.7447 -178.504 4.53646 71.7266 6.91302 13.77 -59.4132 -100.725 1.59028e-015 -0 -50.3908 62.5918 50.3512 -26.0614 -4.78804 -172.506 -63.3644 -1.78906e-015 9.93923e-017 7.23531 12.0023 -24.8808 90 -3.18055e-015 -1.59028e-015 -42.0891 -6.67529 -171.164 -42.1581 -7.95139e-016 4.96962e-016 22.4798 -4.20987 2.4095 90 -2.23633e-015 -0 
78.2259 85.8819 -67.5744 179.655 -71.755 89.6412 -1.25732 -1.57484 -1.21541 -2.54919 -3.1218 -2.4663 -2.54919 -3.1218 -2.4663 -8.30748e-012 -9.0191e-006 -5.27751e-005 -26.0264 22.6056 7.04556 179.917 8.18148 -89.4132 -45.3822 -67.2749 2.64434 -46.1635 5.56597e-015 9.54166e-015 -93.5152 -61.3175 -100.562 -178.414 4.66221 71.1836 6.14743 11.2101 -61.811 -98.4304 -3.62782e-015 -3.18055e-015 -44.5531 65.5586 44.8468 -32.2552 -3.09172 -172.506 -62.835 -8.94531e-016 4.96962e-016 9.4895 7.66795 -15.463 90 -1.98785e-015 -3.97569e-016 -36.2269 -4.42246 -170.037 -37.2679 1.59028e-015 -7.95139e-016 23.3338 -6.18585 6.17188 90 2.48481e-016 -0 
78.4355 87.0842 -72.1229 -164.399 -70.9743 106.806 -1.26713 -1.47134 -1.86228 -2.58266 -2.89988 -3.75828 -2.58266 -2.89988 -3.75829 -8.30748e-012 -9.0191e-006 -5.27751e-005 -25.6963 20.2961 9.34422 -179.792 9.67193 -91.2393 -56.6963 -75.3838 -11.6393 -33.0373 7.15625e-015 -0 -95.5137 -62.0438 -104.672 -178.298 4.82056 70.5328 3.79757 8.13505 -63.383 -94.9678 -3.57812e-015 3.18055e-015 -43.9108 67.2249 44.3644 -37.7168 0.0571735 -172.191 -58.9242 0 5.96354e-016 9.23358 2.89506 -5.73453 90 9.93923e-016 -3.97569e-016 -30.9653 0.075905 -169.825 -32.402 3.97569e-016 -2.38542e-015 23.0872 -7.29904 10.3254 90 -5.26779e-015 -1.59028e-015 
78.4829 87.8752 -76.8163 -149.83 -68.4277 122.411 -1.36105 -1.46168 -2.41661 -2.78386 -2.86376 -4.86938 -2.78386 -2.86376 -4.86939 -8.3043e-012 -9.0191e-006 -5.27751e-005 -24.4574 16.9034 11.2643 -179.558 11.1064 -92.2953 -98.5057 -82.948 -58.8013 -21.3121 -1.59028e-015 -9.54166e-015 -96.0286 -62.6315 -105.184 -178.154 5.09601 70.0523 -1.2239 5.01906 -63.7138 -90.3376 -6.36111e-015 -9.54166e-015 -45.8183 66.3922 46.1046 -41.9877 3.01048 -170.943 -51.879 -7.95139e-016 -1.59028e-015 8.31572 0.759999 -1.48332 90 2.18663e-015 7.95139e-016 -25.9342 2.72736 -170.877 -28.0161 2.38542e-015 7.95139e-016 22.9545 -8.68814 16.5907 90 2.5842e-015 7.95139e-016 
78.3376 88.1562 -81.6847 -139.199 -64.6423 133.489 -1.57093 -1.62056 -2.75367 -3.21978 -3.16265 -5.55376 -3.21978 -3.16265 -5.55377 -8.30589e-012 -9.0191e-006 -5.27751e-005 -22.2814 12.6215 12.6736 -179.491 11.576 -92.5368 -73.9714 -82.9784 -42.0412 -17.7441 -2.98177e-015 3.18055e-015 -77.7167 -54.6388 -86.5968 -177.964 5.49926 69.6476 -7.68764 2.05821 -63.0883 -85.5915 0 3.18055e-015 -44.4924 63.9716 44.0638 -44.7821 4.71513 -168.95 -41.675 0 -1.19271e-015 3.68582 2.2156 -4.39334 90 -3.97569e-016 -1.59028e-015 -22.3484 1.34011 -172.539 -26.9421 0 3.18056e-015 24.2927 -10.7461 22.4197 90 9.93923e-016 -0 
77.8532 87.7211 -86.8316 -130.885 -60.1162 142.027 -1.84449 -1.68454 -2.89963 -3.7742 -3.27221 -5.85541 -3.7742 -3.27221 -5.85542 -8.31225e-012 -9.0191e-006 -5.27751e-005 -19.3524 8.11968 13.1614 -179.811 9.87928 -91.1035 -86.1367 -86.7136 -59.752 -13.3899 -8.94531e-016 3.18055e-015 -78.5594 -55.8817 -82.8226 -177.888 5.53361 69.0774 -12.1036 -1.33018 -61.5366 -83.0973 -1.59028e-015 -0 -37.4574 61.8651 36.2742 -45.5325 5.08129 -166.59 -29.7517 -1.59028e-015 4.77083e-015 -3.41772 7.07918 -14.2837 90 -1.98785e-015 3.18055e-015 -20.5585 -4.09459 -175.647 -30.0575 0 1.59028e-015 28.1108 -13.9552 30.2877 90 -1.39149e-015 -0 
77.0781 86.414 -92.4062 -122.437 -55.0169 150.939 -1.86912 -1.31896 -3.02218 -3.8066 -2.53635 -6.08785 -3.8066 -2.53635 -6.08786 -8.30748e-012 -9.0191e-006 -5.27751e-005 -16.6678 3.53397 13.0304 179.705 7.29159 -87.6782 -39.1484 -86.631 -16.491 -14.7079 -4.77083e-015 -6.36111e-015 -74.3223 -58.8926 -75.8766 -177.981 5.16078 68.5975 -12.2629 -4.35587 -59.707 -83.3175 -1.59028e-015 6.36111e-015 -28.3824 60.4584 27.2295 -43.6265 5.73738 -164.373 -19.8199 0 -7.95139e-016 -8.12912 8.16007 -16.5834 90 3.97569e-016 6.36111e-015 -20.4473 -9.44723 179.334 -36.7883 9.54167e-015 6.36111e-015 32.191 -16.7019 37.9198 90 7.15625e-015 -0 
